<svg xmlns="http://www.w3.org/2000/svg" xmlns:xlink="http://www.w3.org/1999/xlink" width="500" zoomAndPan="magnify" viewBox="0 0 375 374.999991" height="500" preserveAspectRatio="xMidYMid meet" version="1.0"><defs><g/></defs><g fill="#000000" fill-opacity="1"><g transform="translate(124.353011, 231.695787)"><g><path d="M 173.90625 -74.265625 C 174.019531 -74.390625 174.140625 -74.421875 174.265625 -74.359375 C 174.390625 -74.296875 174.453125 -74.203125 174.453125 -74.078125 C 174.578125 -73.960938 174.515625 -73.78125 174.265625 -73.53125 C 163.847656 -69.238281 153.273438 -65.160156 142.546875 -61.296875 C 131.828125 -57.441406 121.078125 -53.800781 110.296875 -50.375 L 122.25 12.6875 C 122.488281 14.519531 121.691406 15.679688 119.859375 16.171875 C 119.484375 16.171875 119.113281 16.140625 118.75 16.078125 C 118.382812 16.023438 118.019531 15.9375 117.65625 15.8125 C 111.03125 11.519531 104.410156 7.289062 97.796875 3.125 C 91.179688 -1.039062 84.503906 -5.144531 77.765625 -9.1875 C 71.753906 -13.113281 65.070312 -17.191406 57.71875 -21.421875 C 50.363281 -25.648438 43.378906 -29.109375 36.765625 -31.796875 C 35.421875 -32.410156 35.050781 -33.332031 35.65625 -34.5625 C 35.78125 -35.175781 36.332031 -35.601562 37.3125 -35.84375 C 48.21875 -37.6875 59.15625 -39.863281 70.125 -42.375 C 81.09375 -44.882812 91.972656 -47.671875 102.765625 -50.734375 L 101.46875 -56.984375 C 97.0625 -77.203125 92.832031 -97.425781 88.78125 -117.65625 C 75.789062 -97.675781 62.097656 -78.003906 47.703125 -58.640625 C 33.304688 -39.273438 17.53125 -21.195312 0.375 -4.40625 C 0.25 -4.289062 0.0625 -4.289062 -0.1875 -4.40625 C -0.3125 -4.65625 -0.3125 -4.84375 -0.1875 -4.96875 C 7.90625 -14.894531 15.78125 -25.003906 23.4375 -35.296875 C 31.09375 -45.585938 38.476562 -56.003906 45.59375 -66.546875 C 52.945312 -76.960938 60.082031 -87.5625 67 -98.34375 C 73.925781 -109.132812 80.695312 -119.921875 87.3125 -130.703125 C 88.050781 -132.046875 89.21875 -132.71875 90.8125 -132.71875 C 91.175781 -132.71875 91.539062 -132.65625 91.90625 -132.53125 C 92.28125 -132.414062 92.648438 -132.234375 93.015625 -131.984375 C 93.992188 -131.367188 94.609375 -130.453125 94.859375 -129.234375 C 97.304688 -117.460938 99.660156 -105.664062 101.921875 -93.84375 C 104.191406 -82.019531 106.429688 -70.164062 108.640625 -58.28125 L 109.75 -52.765625 C 120.65625 -55.941406 131.46875 -59.304688 142.1875 -62.859375 C 152.914062 -66.421875 163.488281 -70.222656 173.90625 -74.265625 Z M 44.671875 -32.90625 C 50.796875 -30.082031 56.828125 -27.015625 62.765625 -23.703125 C 68.710938 -20.398438 74.566406 -17.035156 80.328125 -13.609375 C 86.085938 -10.171875 91.878906 -6.734375 97.703125 -3.296875 C 103.523438 0.128906 109.253906 3.617188 114.890625 7.171875 L 103.3125 -48.15625 C 93.625 -45.21875 83.910156 -42.460938 74.171875 -39.890625 C 64.429688 -37.316406 54.597656 -34.988281 44.671875 -32.90625 Z M 44.671875 -32.90625 "/></g></g></g><g fill="#000000" fill-opacity="1"><g transform="translate(134.512174, 279.147872)"><g><path d="M 16.09375 -1.125 L 16.078125 0 L 9.09375 0 L 8.953125 -0.703125 C 9.367188 -0.960938 10.015625 -1.273438 10.890625 -1.640625 L 9.953125 -4.03125 L 4.671875 -4.03125 L 3.703125 -1.421875 L 5.75 -1.125 L 5.71875 0 L -0.3125 0 L -0.4375 -0.703125 C 0 -0.984375 0.609375 -1.28125 1.390625 -1.59375 L 6.296875 -13.640625 L 6.03125 -14.328125 L 8.9375 -15.125 L 14.515625 -1.359375 Z M 9.3125 -5.71875 L 7.3125 -10.953125 L 5.328125 -5.71875 Z M 9.3125 -5.71875 "/></g></g></g><g fill="#000000" fill-opacity="1"><g transform="translate(150.453736, 279.147872)"><g><path d="M 16.5625 -13.875 C 16.101562 -13.59375 15.503906 -13.300781 14.765625 -13 L 14.671875 0 L 11.546875 0.28125 L 4.546875 -10.46875 L 4.875 -7.734375 L 4.875 -1.421875 L 6.828125 -1.125 L 6.8125 0 L 0.703125 0 L 0.578125 -0.703125 C 1.003906 -0.984375 1.632812 -1.289062 2.46875 -1.625 L 2.46875 -13.21875 L 0.90625 -13.453125 L 0.9375 -14.59375 L 5.859375 -14.59375 L 5.828125 -14.5625 L 12.6875 -3.859375 L 12.34375 -6.671875 L 12.34375 -13.140625 L 10.203125 -13.453125 L 10.21875 -14.59375 L 16.421875 -14.59375 Z M 16.5625 -13.875 "/></g></g></g><g fill="#000000" fill-opacity="1"><g transform="translate(167.614746, 279.147872)"><g><path d="M 15.734375 -1.15625 L 15.71875 0 L 11.265625 0 L 6.734375 -6.34375 L 5.828125 -5.390625 L 5.828125 -1.390625 L 7.6875 -1.125 L 7.671875 0 L 0.703125 0 L 0.578125 -0.703125 C 1.003906 -0.984375 1.632812 -1.289062 2.46875 -1.625 L 2.46875 -13.21875 L 0.734375 -13.453125 L 0.75 -14.59375 L 7.5625 -14.59375 L 7.6875 -13.875 C 7.144531 -13.550781 6.523438 -13.25 5.828125 -12.96875 L 5.828125 -8 L 10.734375 -13.234375 L 9.265625 -13.453125 L 9.296875 -14.59375 L 14.78125 -14.59375 L 14.921875 -13.875 C 14.609375 -13.664062 13.992188 -13.394531 13.078125 -13.0625 L 8.9375 -8.671875 L 14.375 -1.375 Z M 15.734375 -1.15625 "/></g></g></g><g fill="#000000" fill-opacity="1"><g transform="translate(183.556307, 279.147872)"><g><path d="M 12.578125 -4.40625 C 12.597656 -2.957031 12.507812 -1.488281 12.3125 0 L 0.703125 0 L 0.578125 -0.703125 C 1.003906 -0.984375 1.632812 -1.289062 2.46875 -1.625 L 2.46875 -13.265625 L 0.828125 -13.453125 L 0.84375 -14.59375 L 12.421875 -14.59375 C 12.492188 -13.375 12.375 -11.96875 12.0625 -10.375 L 10.203125 -10.375 L 9.828125 -12.578125 L 5.828125 -12.859375 L 5.828125 -8.09375 L 10.59375 -8.46875 L 10.59375 -6.234375 L 5.828125 -6.4375 L 5.828125 -1.84375 L 9.984375 -2.125 L 10.703125 -4.546875 Z M 12.578125 -4.40625 "/></g></g></g><g fill="#000000" fill-opacity="1"><g transform="translate(197.236345, 279.147872)"><g><path d="M 12.640625 -1.59375 L 8.09375 0.359375 C 6.269531 0.410156 4.769531 0.0820312 3.59375 -0.625 C 2.425781 -1.332031 1.578125 -2.257812 1.046875 -3.40625 C 0.515625 -4.550781 0.25 -5.789062 0.25 -7.125 C 0.25 -8.476562 0.523438 -9.757812 1.078125 -10.96875 C 1.640625 -12.1875 2.484375 -13.164062 3.609375 -13.90625 C 4.734375 -14.65625 6.09375 -15.03125 7.6875 -15.03125 C 9.40625 -15.03125 10.929688 -14.566406 12.265625 -13.640625 C 12.296875 -13.160156 12.265625 -12.519531 12.171875 -11.71875 C 12.085938 -10.925781 11.953125 -10.234375 11.765625 -9.640625 L 9.734375 -9.640625 L 9.203125 -12.421875 C 8.179688 -12.859375 7.066406 -13.078125 5.859375 -13.078125 C 5.128906 -12.535156 4.582031 -11.769531 4.21875 -10.78125 C 3.863281 -9.789062 3.6875 -8.75 3.6875 -7.65625 C 3.6875 -5.894531 4.113281 -4.492188 4.96875 -3.453125 C 5.820312 -2.421875 6.984375 -1.925781 8.453125 -1.96875 L 12.109375 -3.171875 Z M 12.640625 -1.59375 "/></g></g></g><g fill="#000000" fill-opacity="1"><g transform="translate(210.140359, 279.147872)"><g><path d="M 12.578125 -4.40625 C 12.597656 -2.957031 12.507812 -1.488281 12.3125 0 L 0.703125 0 L 0.578125 -0.703125 C 1.003906 -0.984375 1.632812 -1.289062 2.46875 -1.625 L 2.46875 -13.265625 L 0.828125 -13.453125 L 0.84375 -14.59375 L 12.421875 -14.59375 C 12.492188 -13.375 12.375 -11.96875 12.0625 -10.375 L 10.203125 -10.375 L 9.828125 -12.578125 L 5.828125 -12.859375 L 5.828125 -8.09375 L 10.59375 -8.46875 L 10.59375 -6.234375 L 5.828125 -6.4375 L 5.828125 -1.84375 L 9.984375 -2.125 L 10.703125 -4.546875 Z M 12.578125 -4.40625 "/></g></g></g></svg>